<?xml version="1.0" encoding="UTF-8" standalone="no" ?>
<!DOCTYPE svg PUBLIC "-//W3C//DTD SVG 1.1//EN" "http://www.w3.org/Graphics/SVG/1.1/DTD/svg11.dtd">
<svg xmlns="http://www.w3.org/2000/svg" xmlns:xlink="http://www.w3.org/1999/xlink" version="1.1" width="640" height="320" viewBox="0 0 640 320" xml:space="preserve">
<desc>Created with Fabric.js 5.3.0</desc>
<defs>
</defs>
<g transform="matrix(1.3990729054 0 0 1.3990729054 478.7607049839 160)" id="LCZoauvk1fo8I5SRXAfhQ"  >
<path style="stroke: none; stroke-width: 1; stroke-dasharray: none; stroke-linecap: butt; stroke-dashoffset: 0; stroke-linejoin: miter; stroke-miterlimit: 4; fill: rgb(48,48,48); fill-rule: nonzero; opacity: 1;" vector-effect="non-scaling-stroke"  transform=" translate(-422.8722579893, -305.7037568076)" d="M 321.94 355.06 Q 312.17 346.72 310.92 332.31 Q 308.4 303.13 316.25 273.75 Q 318.5 265.33 321.44 258.07 Q 324.54 250.41 328.99 243.46 Q 352.9 206.18 399.5 203.5 Q 414.99 202.61 441.25 203.4 Q 453.87 203.78 461.15 205.2 Q 501.08 212.94 520.94 249.56 Q 526.4 259.63 529.9 272.46 Q 536.9 298.1 535.75 327.5 Q 535.4 336.44 532.34 343.76 Q 528.99 351.8 522.52 356.55 Q 513.85 362.91 501.5 362.74 C 500.93607698208984 362.7266919849831 500.4125879843912 363.0369076873231 500.15 363.54 Q 479.8 402.73 436.5 408 Q 431.85 408.57 425.5 408.58 Q 418.74 408.6 414.5 408.37 Q 392.22 407.2 373.89 395.34 Q 365.23 389.74 358.75 382.37 Q 351.62 374.27 346.59 364.11 C 346.16792373023026 363.2608806354324 345.30124555793776 362.72843709460693 344.36 362.74 Q 331.07 362.87 321.94 355.06 Z M 331.72 346.51 Q 335.48 349.4 340.18 349.67 C 340.3002308361709 349.6766396018213 340.4164934727044 349.62590167693753 340.49338655630845 349.533235653107 C 340.57027963991254 349.4405696292765 340.59870230444034 349.31694321698376 340.57 349.2 Q 337.59 336.75 337 327.75 Q 336.28 316.89 337.09 299.75 Q 338.06 279.22 345.43 260.15 Q 346.81 256.58 348.77 255.23 Q 352.02 253 355.49 255.39 Q 357.51 256.78 358.07 258.85 Q 358.67 261.08 357.73 263.45 Q 350.68 281.31 349.77 300.5 Q 349.18 312.88 349.77 325.25 Q 350.29 336.2 353.4 346.54 Q 356.34 356.33 361.6 364.71 Q 379.77 393.64 416.5 395.78 Q 421.18 396.05 429 395.75 Q 458.65 394.62 477.39 374.44 Q 484.01 367.31 488.56 357.96 Q 495.26 344.23 496.25 329.75 Q 497.79 307.29 496 292.75 Q 494.24 278.43 488.75 264 Q 486.36 257.72 491.29 255.07 Q 493.28 254 495.37 254.24 Q 497.98 254.55 499.19 256.56 Q 500.53 258.81 501.69 262.06 Q 508.63 281.68 509.46 302 Q 509.88 312.3 509.55 322 Q 509.08 335.83 505.61 349.51 C 505.58014468728237 349.6169757094162 505.60789287783166 349.73178166233913 505.68330978250884 349.81331345117934 C 505.758726687186 349.89484524001955 505.8710257065983 349.9314416762443 505.98 349.91 Q 518.03 347.8 521.49 336.75 Q 522.7 332.87 523 327.25 Q 524.61 296.7 515.06 268.82 Q 500.91 227.52 460.35 218.24 Q 452.65 216.47 440.5 216.12 Q 421.74 215.57 402.99 216.3 Q 391.68 216.74 384.19 218.65 Q 344.68 228.71 331 269 Q 321.1 298.17 323.54 329.13 Q 324.04 335.49 325.46 338.67 Q 327.51 343.28 331.72 346.51 Z" stroke-linecap="round" />
</g>
<g transform="matrix(1.3990729054 0 0 1.3990729054 133.453811716 168.9250794931)" id="YYeqt3TSucUnGBGBvLbTx"  >
<path style="stroke: none; stroke-width: 1; stroke-dasharray: none; stroke-linecap: butt; stroke-dashoffset: 0; stroke-linejoin: miter; stroke-miterlimit: 4; fill: rgb(48,48,48); fill-rule: nonzero; opacity: 1;" vector-effect="non-scaling-stroke"  transform=" translate(-176.0610361268, -312.0830380147)" d="M 254.22 221.31 Q 255.81 222.5 256.59 224.33 Q 263.08 239.5 265.56 255.58 Q 271.04 291.07 265.37 326.53 Q 258.64 368.62 223.78 389.26 Q 215.31 394.27 205.54 397.35 Q 172.13 407.88 139.69 395.03 Q 130.12 391.23 122.11 385.61 Q 92.46 364.81 86.36 327.28 Q 81.64 298.28 84.13 268.99 Q 86.06 246.35 94.55 225.31 Q 96.48 220.51 100.81 219.63 Q 103.86 219.02 108.29 220.99 Q 114.17 223.61 119.56 227.94 Q 130.68 236.86 139.21 245.09 C 139.4266479253689 245.30784170713403 139.74212989442114 245.3952644214497 140.04 245.32 Q 174.85 237.01 211.13 245.32 C 211.72763370273782 245.45614773137615 212.35189837022187 245.2745434644717 212.78 244.84 Q 223.9 233.74 237.15 224.44 Q 243.35 220.08 247.25 219.5 Q 251.07 218.93 254.22 221.31 Z M 199.55 256.03 Q 169.61 250.7 140.25 258.5 Q 137.77 259.16 135.76 258.59 Q 134.35 258.2 132.28 256.17 Q 120.07 244.23 105.98 233.72 C 105.78343791205756 233.5719201816536 105.52852003311472 233.525289667911 105.29226583333067 233.59419714284803 C 105.05601163354665 233.66310461778502 104.86613344221006 233.83946731869247 104.78 234.07 Q 102.33 240.51 100.56 247.43 Q 98.98 253.6 97.96 261.17 Q 93.67 292.94 98.53 324.78 Q 101.85 346.5 114.81 361.94 Q 132.56 383.08 161.28 387.81 Q 195.15 393.4 221.98 375.23 Q 230.58 369.4 236.77 361.89 Q 248.89 347.19 252.31 328.06 Q 258.09 295.77 253.82 262.58 Q 252.78 254.53 251.16 248.01 Q 249.36 240.74 246.79 233.84 C 246.72209853726042 233.6523049601427 246.56926906261472 233.5078906708888 246.3780330560438 233.45071701943974 C 246.18679704947283 233.3935433679907 245.97978068556 233.43037488076834 245.82 233.55 Q 231.6 244.24 218.82 256.6 Q 217.01 258.34 215.67 258.69 Q 213.82 259.18 211.69 258.56 Q 208.38 257.6 199.55 256.03 Z" stroke-linecap="round" />
</g>
<g transform="matrix(1.3990729054 0 0 1.3990729054 428.3209676509 139.372409326)" id="hQ9--tNOSl4LKHPyGfD4Z"  >
<path style="stroke: none; stroke-width: 1; stroke-dasharray: none; stroke-linecap: butt; stroke-dashoffset: 0; stroke-linejoin: miter; stroke-miterlimit: 4; fill: rgb(48,48,48); fill-rule: nonzero; opacity: 1;" vector-effect="non-scaling-stroke"  transform=" translate(-13.41, -13.41)" d="M 0 13.41 C 0 6.00386 6.00386 0 13.41 0 C 20.81614 0 26.82 6.00386 26.82 13.41 C 26.82 20.81614 20.81614 26.82 13.41 26.82 C 6.00386 26.82 0 20.81614 0 13.41 z" stroke-linecap="round" />
</g>
<g transform="matrix(1.3990729054 0 0 1.3990729054 529.9776049607 139.3864000551)" id="tzyclZZB-x8RvPSSXNIqI"  >
<path style="stroke: none; stroke-width: 1; stroke-dasharray: none; stroke-linecap: butt; stroke-dashoffset: 0; stroke-linejoin: miter; stroke-miterlimit: 4; fill: rgb(48,48,48); fill-rule: nonzero; opacity: 1;" vector-effect="non-scaling-stroke"  transform=" translate(-13.42, -13.42)" d="M 0 13.42 C 0 6.00834 6.00834 0 13.42 0 C 20.83166 0 26.84 6.00834 26.84 13.42 C 26.84 20.83166 20.83166 26.84 13.42 26.84 C 6.00834 26.84 0 20.83166 0 13.42 z" stroke-linecap="round" />
</g>
<g transform="matrix(1.3990729054 0 0 1.3990729054 79.5041108651 161.1699651929)" id="s0cEG4TGeYhFjrqrTp-Yx"  >
<path style="stroke: none; stroke-width: 1; stroke-dasharray: none; stroke-linecap: butt; stroke-dashoffset: 0; stroke-linejoin: miter; stroke-miterlimit: 4; fill: rgb(48,48,48); fill-rule: nonzero; opacity: 1;" vector-effect="non-scaling-stroke"  transform=" translate(-13.38, -13.38)" d="M 0 13.38 C 0 5.990430000000001 5.99043 0 13.38 0 C 20.76957 0 26.76 5.99043 26.76 13.38 C 26.76 20.76957 20.76957 26.76 13.38 26.76 C 5.990430000000001 26.76 0 20.76957 0 13.38 z" stroke-linecap="round" />
</g>
<g transform="matrix(1.3990729054 0 0 1.3990729054 185.9315867824 161.1559744638)" id="Gnc-2wlOmQeMPClF6dVRQ"  >
<path style="stroke: none; stroke-width: 1; stroke-dasharray: none; stroke-linecap: butt; stroke-dashoffset: 0; stroke-linejoin: miter; stroke-miterlimit: 4; fill: rgb(48,48,48); fill-rule: nonzero; opacity: 1;" vector-effect="non-scaling-stroke"  transform=" translate(-13.38, -13.38)" d="M 0 13.38 C 0 5.990430000000001 5.99043 0 13.38 0 C 20.76957 0 26.76 5.99043 26.76 13.38 C 26.76 20.76957 20.76957 26.76 13.38 26.76 C 5.990430000000001 26.76 0 20.76957 0 13.38 z" stroke-linecap="round" />
</g>
<g transform="matrix(1.3990729054 0 0 1.3990729054 477.9663227277 216.3141558314)" id="TfMWAm3smFAQDivR3wBUi"  >
<path style="stroke: none; stroke-width: 1; stroke-dasharray: none; stroke-linecap: butt; stroke-dashoffset: 0; stroke-linejoin: miter; stroke-miterlimit: 4; fill: rgb(48,48,48); fill-rule: nonzero; opacity: 1;" vector-effect="non-scaling-stroke"  transform=" translate(-422.3044660943, -345.9548084949)" d="M 422.35 361.69 Q 413.87 371.12 402 372.17 Q 393.92 372.88 386.91 369.56 Q 382 367.24 378.19 363.29 Q 374.56 359.54 372.41 354.46 Q 368.12 344.32 370.75 333.25 Q 371.58 329.75 374.56 328.7 Q 377.29 327.73 379.85 329.07 Q 381.92 330.14 382.76 332.43 Q 383.3 333.87 382.87 336.6 Q 382.09 341.57 382.75 345.25 Q 384.36 354.2 392.25 358 Q 396.67 360.13 401.35 359.54 Q 405.8 358.98 409.51 356.12 Q 416.49 350.74 416.23 340.24 C 416.21190995524273 339.36547829274457 415.711607038858 338.57269059447344 414.93 338.18 Q 410.18 335.78 407.71 330.12 Q 405.29 324.59 408.84 321.74 Q 410.84 320.13 415.65 319.37 Q 425.14 317.86 434.19 320.06 Q 438.76 321.18 439.49 325.01 Q 440.02 327.82 438.17 331.21 Q 435.29 336.48 429.64 339.22 C 429.3535588464372 339.3631000013915 429.15838668609877 339.63333837724474 429.12 339.94 Q 428.06 348.19 433.06 353.94 Q 437.13 358.61 443.04 359.47 Q 448.32 360.24 453.59 357.5 Q 464.67 351.75 462.25 337.5 Q 461.56 333.43 463.3 330.9 Q 465.08 328.32 468.6 328.27 Q 472.76 328.2 474.25 332.75 Q 475.96 337.96 475.08 345.51 Q 473.25 361.32 460.06 368.56 Q 448.69 374.81 436.56 370.94 Q 428.66 368.42 423 361.69 C 422.92269465885295 361.59582595885365 422.80662811442653 361.5417236915625 422.68190023076073 361.5417236915625 C 422.5571723470949 361.5417236915625 422.4360703639943 361.59582595885365 422.35 361.69 Z" stroke-linecap="round" />
</g>
<g transform="matrix(1.3990729054 0 0 1.3990729054 133.0719909914 213.6421903769)" id="O5GXM6-MQVl-X4AVQK7_N"  >
<path style="stroke: none; stroke-width: 1; stroke-dasharray: none; stroke-linecap: butt; stroke-dashoffset: 0; stroke-linejoin: miter; stroke-miterlimit: 4; fill: rgb(48,48,48); fill-rule: nonzero; opacity: 1;" vector-effect="non-scaling-stroke"  transform=" translate(-175.7881263141, -344.0449970447)" d="M 175.06 355.31 Q 166.32 365.97 153.51 364.48 Q 147.63 363.79 142.83 360.8 Q 137.9 357.73 134.51 352.73 Q 133.1 350.66 133.3 348.4 Q 133.49 346.26 135.11 344.6 Q 137.44 342.22 140.76 343.08 Q 142.38 343.5 144.07 345.34 Q 145.47 346.86 146.92 348.33 Q 152.28 353.74 158.84 352.16 Q 162.93 351.18 165.61 347.77 Q 168.22 344.44 168.93 340 C 168.97349063913052 339.70278677352644 168.83304319002386 339.4023852851594 168.57 339.23 Q 163.06 335.69 162 330 Q 161.56 327.63 163.24 326.1 Q 164.29 325.15 166.62 324.51 Q 174.07 322.47 183 324 Q 185.98 324.51 187.65 326.22 Q 189.28 327.88 188.74 330.68 Q 187.67 336.18 182.49 338.97 C 182.09698545744777 339.1771143084134 181.8859418923738 339.6194940890492 181.97 340.06 Q 183.84 350.46 192.81 352.17 Q 196.96 352.96 200.47 351.18 Q 204.01 349.38 206.5 345.75 Q 208.74 342.48 212.1 342.87 Q 215.12 343.21 216.87 345.66 Q 218.9 348.51 216.69 352.19 Q 212.47 359.2 205.32 362.39 Q 198.32 365.52 190.87 364.35 Q 181.92 362.94 175.69 355.31 C 175.61210271750318 355.21650205725194 175.49669573500543 355.16244046944024 175.375 355.16244046944024 C 175.25330426499457 355.16244046944024 175.13789728249682 355.21650205725194 175.06 355.31 Z" stroke-linecap="round" />
</g>
</svg>